<?xml version="1.0" encoding="UTF-8" standalone="no"?><!-- Generator: Gravit.io --><svg xmlns="http://www.w3.org/2000/svg" xmlns:xlink="http://www.w3.org/1999/xlink" style="isolation:isolate" viewBox="495.891 9.789 347.977 114.188" width="347.977pt" height="114.188pt"><path d=" M 525.281 121.797 L 495.891 121.797 L 534.492 19.141 L 568.313 19.141 L 575.555 121.797 L 546.586 121.797 L 546.727 106.68 L 529.781 106.68 L 525.281 121.797 L 525.281 121.797 Z  M 547.641 47.898 L 535.828 85.938 L 547.289 85.938 L 547.641 47.898 L 547.641 47.898 Z  M 603.68 121.797 L 577.734 121.797 L 595.453 9.789 L 621.328 9.789 L 613.875 57.742 L 613.875 57.742 Q 618.375 52.68 622.84 50.289 L 622.84 50.289 L 622.84 50.289 Q 627.305 47.898 632.297 47.898 L 632.297 47.898 L 632.297 47.898 Q 640.875 47.898 645.656 54.473 L 645.656 54.473 L 645.656 54.473 Q 650.438 61.047 650.438 72.859 L 650.438 72.859 L 650.438 72.859 Q 650.438 94.656 641.824 109.176 L 641.824 109.176 L 641.824 109.176 Q 633.211 123.695 620.344 123.695 L 620.344 123.695 L 620.344 123.695 Q 615.352 123.695 611.66 121.34 L 611.66 121.34 L 611.66 121.34 Q 607.969 118.984 604.945 113.852 L 604.945 113.852 L 603.68 121.797 L 603.68 121.797 Z  M 608.953 93.109 L 608.953 93.109 L 608.953 93.109 Q 608.953 97.398 610.254 99.508 L 610.254 99.508 L 610.254 99.508 Q 611.555 101.617 614.156 101.617 L 614.156 101.617 L 614.156 101.617 Q 618.164 101.617 620.836 95.008 L 620.836 95.008 L 620.836 95.008 Q 623.508 88.398 623.508 78.484 L 623.508 78.484 L 623.508 78.484 Q 623.508 74.195 622.242 72.156 L 622.242 72.156 L 622.242 72.156 Q 620.977 70.117 618.305 70.117 L 618.305 70.117 L 618.305 70.117 Q 614.367 70.117 611.66 76.727 L 611.66 76.727 L 611.66 76.727 Q 608.953 83.336 608.953 93.109 Z  M 680.883 94.305 L 680.883 94.305 L 680.883 94.305 Q 680.883 98.242 682.008 100.211 L 682.008 100.211 L 682.008 100.211 Q 683.133 102.18 685.313 102.18 L 685.313 102.18 L 685.313 102.18 Q 689.039 102.18 691.852 94.832 L 691.852 94.832 L 691.852 94.832 Q 694.664 87.484 694.664 77.43 L 694.664 77.43 L 694.664 77.43 Q 694.664 73.422 693.539 71.488 L 693.539 71.488 L 693.539 71.488 Q 692.414 69.555 690.094 69.555 L 690.094 69.555 L 690.094 69.555 Q 686.438 69.555 683.66 76.973 L 683.66 76.973 L 683.66 76.973 Q 680.883 84.391 680.883 94.305 Z  M 685.875 123.977 L 685.875 123.977 L 685.875 123.977 Q 670.758 123.977 662.848 115.961 L 662.848 115.961 L 662.848 115.961 Q 654.938 107.945 654.938 92.547 L 654.938 92.547 L 654.938 92.547 Q 654.938 72.156 664.395 59.957 L 664.395 59.957 L 664.395 59.957 Q 673.852 47.758 689.813 47.758 L 689.813 47.758 L 689.813 47.758 Q 704.93 47.758 712.77 55.738 L 712.77 55.738 L 712.77 55.738 Q 720.609 63.719 720.609 79.188 L 720.609 79.188 L 720.609 79.188 Q 720.609 99.648 711.223 111.813 L 711.223 111.813 L 711.223 111.813 Q 701.836 123.977 685.875 123.977 Z  M 725.742 92.969 L 732.492 49.797 L 758.578 49.797 L 751.406 95.43 L 751.406 95.43 Q 751.336 95.641 751.301 95.922 L 751.301 95.922 L 751.301 95.922 Q 751.266 96.203 751.266 96.766 L 751.266 96.766 L 751.266 96.766 Q 751.266 98.734 752.391 99.824 L 752.391 99.824 L 752.391 99.824 Q 753.516 100.914 755.555 100.914 L 755.555 100.914 L 755.555 100.914 Q 757.875 100.914 759.527 99.438 L 759.527 99.438 L 759.527 99.438 Q 761.18 97.961 761.602 95.43 L 761.602 95.43 L 768.844 49.797 L 794.859 49.797 L 787.969 92.969 L 787.969 92.969 Q 785.578 108.367 776.543 116.102 L 776.543 116.102 L 776.543 116.102 Q 767.508 123.836 751.969 123.836 L 751.969 123.836 L 751.969 123.836 Q 739.242 123.836 732.07 118.035 L 732.07 118.035 L 732.07 118.035 Q 724.898 112.234 724.898 102.039 L 724.898 102.039 L 724.898 102.039 Q 724.898 100 725.109 97.75 L 725.109 97.75 L 725.109 97.75 Q 725.32 95.5 725.742 92.969 L 725.742 92.969 L 725.742 92.969 Z  M 822.984 121.797 L 796.898 121.797 L 804.703 72.578 L 795.914 72.578 L 799.5 49.797 L 808.289 49.797 L 811.594 28.633 L 837.82 28.633 L 834.516 49.797 L 843.867 49.797 L 840.281 72.578 L 830.93 72.578 L 822.984 121.797 L 822.984 121.797 Z " fill="rgb(0,0,0)"/></svg>