<?xml version="1.0" encoding="UTF-8" standalone="no"?><!-- Generator: Gravit.io --><svg xmlns="http://www.w3.org/2000/svg" xmlns:xlink="http://www.w3.org/1999/xlink" style="isolation:isolate" viewBox="189.266 177.742 418.992 106.734" width="418.992pt" height="106.734pt"><path d=" M 256.273 180.625 L 251.773 206.008 L 251.773 206.008 Q 249.242 204.672 246.992 204.109 L 246.992 204.109 L 246.992 204.109 Q 244.742 203.547 242.422 203.547 L 242.422 203.547 L 242.422 203.547 Q 232.367 203.547 226.25 213.145 L 226.25 213.145 L 226.25 213.145 Q 220.133 222.742 220.133 238.633 L 220.133 238.633 L 220.133 238.633 Q 220.133 248.828 223.824 253.75 L 223.824 253.75 L 223.824 253.75 Q 227.516 258.672 235.109 258.672 L 235.109 258.672 L 235.109 258.672 Q 236.938 258.672 239.082 258.285 L 239.082 258.285 L 239.082 258.285 Q 241.227 257.898 243.617 257.125 L 243.617 257.125 L 239.258 281.875 L 239.258 281.875 Q 236.305 283.07 232.859 283.633 L 232.859 283.633 L 232.859 283.633 Q 229.414 284.195 224.984 284.195 L 224.984 284.195 L 224.984 284.195 Q 207.617 284.195 198.441 274.07 L 198.441 274.07 L 198.441 274.07 Q 189.266 263.945 189.266 244.68 L 189.266 244.68 L 189.266 244.68 Q 189.266 214.516 203.188 196.129 L 203.188 196.129 L 203.188 196.129 Q 217.109 177.742 240.102 177.742 L 240.102 177.742 L 240.102 177.742 Q 244.32 177.742 248.328 178.48 L 248.328 178.48 L 248.328 178.48 Q 252.336 179.219 256.273 180.625 L 256.273 180.625 L 256.273 180.625 Z  M 276.453 254.805 L 276.453 254.805 L 276.453 254.805 Q 276.453 258.742 277.578 260.711 L 277.578 260.711 L 277.578 260.711 Q 278.703 262.68 280.883 262.68 L 280.883 262.68 L 280.883 262.68 Q 284.609 262.68 287.422 255.332 L 287.422 255.332 L 287.422 255.332 Q 290.234 247.984 290.234 237.93 L 290.234 237.93 L 290.234 237.93 Q 290.234 233.922 289.109 231.988 L 289.109 231.988 L 289.109 231.988 Q 287.984 230.055 285.664 230.055 L 285.664 230.055 L 285.664 230.055 Q 282.008 230.055 279.23 237.473 L 279.23 237.473 L 279.23 237.473 Q 276.453 244.891 276.453 254.805 Z  M 281.445 284.477 L 281.445 284.477 L 281.445 284.477 Q 266.328 284.477 258.418 276.461 L 258.418 276.461 L 258.418 276.461 Q 250.508 268.445 250.508 253.047 L 250.508 253.047 L 250.508 253.047 Q 250.508 232.656 259.965 220.457 L 259.965 220.457 L 259.965 220.457 Q 269.422 208.258 285.383 208.258 L 285.383 208.258 L 285.383 208.258 Q 300.5 208.258 308.34 216.238 L 308.34 216.238 L 308.34 216.238 Q 316.18 224.219 316.18 239.688 L 316.18 239.688 L 316.18 239.688 Q 316.18 260.148 306.793 272.313 L 306.793 272.313 L 306.793 272.313 Q 297.406 284.477 281.445 284.477 Z  M 343.25 282.297 L 317.305 282.297 L 328.695 210.297 L 352.18 210.297 L 350.984 217.75 L 350.984 217.75 Q 354.781 213.461 359.457 211.246 L 359.457 211.246 L 359.457 211.246 Q 364.133 209.031 369.406 209.031 L 369.406 209.031 L 369.406 209.031 Q 377.773 209.031 382.379 213.285 L 382.379 213.285 L 382.379 213.285 Q 386.984 217.539 386.984 225.273 L 386.984 225.273 L 386.984 225.273 Q 386.984 227.102 386.773 229.422 L 386.773 229.422 L 386.773 229.422 Q 386.563 231.742 386 235.328 L 386 235.328 L 378.617 282.297 L 352.602 282.297 L 359.352 239.828 L 359.352 239.828 Q 359.352 239.547 359.422 238.984 L 359.422 238.984 L 359.422 238.984 Q 359.633 237.578 359.633 237.367 L 359.633 237.367 L 359.633 237.367 Q 359.633 235.328 358.508 234.203 L 358.508 234.203 L 358.508 234.203 Q 357.383 233.078 355.344 233.078 L 355.344 233.078 L 355.344 233.078 Q 353.234 233.078 351.863 234.871 L 351.863 234.871 L 351.863 234.871 Q 350.492 236.664 350 240.109 L 350 240.109 L 343.25 282.297 L 343.25 282.297 Z  M 418.414 282.297 L 392.328 282.297 L 400.133 233.078 L 391.344 233.078 L 394.93 210.297 L 403.719 210.297 L 407.023 189.133 L 433.25 189.133 L 429.945 210.297 L 439.297 210.297 L 435.711 233.078 L 426.359 233.078 L 418.414 282.297 L 418.414 282.297 Z  M 472.836 230.758 L 472.836 230.758 L 472.836 230.758 Q 468.898 230.758 466.051 237.367 L 466.051 237.367 L 466.051 237.367 Q 463.203 243.977 463.203 253.188 L 463.203 253.188 L 463.203 253.188 Q 463.203 257.336 464.434 259.516 L 464.434 259.516 L 464.434 259.516 Q 465.664 261.695 467.984 261.695 L 467.984 261.695 L 467.984 261.695 Q 471.852 261.695 474.664 255.016 L 474.664 255.016 L 474.664 255.016 Q 477.477 248.336 477.477 238.984 L 477.477 238.984 L 477.477 238.984 Q 477.477 234.906 476.316 232.832 L 476.316 232.832 L 476.316 232.832 Q 475.156 230.758 472.836 230.758 Z  M 497.586 282.297 L 471.711 282.297 L 472.836 274.352 L 472.836 274.352 Q 468.125 279.555 463.66 281.945 L 463.66 281.945 L 463.66 281.945 Q 459.195 284.336 454.273 284.336 L 454.273 284.336 L 454.273 284.336 Q 445.766 284.336 441.02 277.727 L 441.02 277.727 L 441.02 277.727 Q 436.273 271.117 436.273 259.234 L 436.273 259.234 L 436.273 259.234 Q 436.273 237.438 444.922 222.848 L 444.922 222.848 L 444.922 222.848 Q 453.57 208.258 466.367 208.258 L 466.367 208.258 L 466.367 208.258 Q 471.359 208.258 475.051 210.613 L 475.051 210.613 L 475.051 210.613 Q 478.742 212.969 481.766 218.102 L 481.766 218.102 L 483.102 210.297 L 508.977 210.297 L 497.586 282.297 L 497.586 282.297 Z  M 552.781 258.672 L 549.195 281.734 L 549.195 281.734 Q 545.609 283 542.094 283.668 L 542.094 283.668 L 542.094 283.668 Q 538.578 284.336 535.063 284.336 L 535.063 284.336 L 535.063 284.336 Q 523.32 284.336 516.816 277.129 L 516.816 277.129 L 516.816 277.129 Q 510.313 269.922 510.313 256.984 L 510.313 256.984 L 510.313 256.984 Q 510.313 234.977 520.508 221.617 L 520.508 221.617 L 520.508 221.617 Q 530.703 208.258 547.438 208.258 L 547.438 208.258 L 547.438 208.258 Q 550.602 208.258 553.836 208.996 L 553.836 208.996 L 553.836 208.996 Q 557.07 209.734 560.305 211.141 L 560.305 211.141 L 556.789 233.219 L 556.789 233.219 Q 555.313 232.234 553.836 231.777 L 553.836 231.777 L 553.836 231.777 Q 552.359 231.32 550.602 231.32 L 550.602 231.32 L 550.602 231.32 Q 546.031 231.32 542.938 236.91 L 542.938 236.91 L 542.938 236.91 Q 539.844 242.5 539.844 250.938 L 539.844 250.938 L 539.844 250.938 Q 539.844 255.859 541.461 258.074 L 541.461 258.074 L 541.461 258.074 Q 543.078 260.289 546.734 260.289 L 546.734 260.289 L 546.734 260.289 Q 548.141 260.289 549.688 259.867 L 549.688 259.867 L 549.688 259.867 Q 551.234 259.445 552.781 258.672 L 552.781 258.672 L 552.781 258.672 Z  M 587.375 282.297 L 561.289 282.297 L 569.094 233.078 L 560.305 233.078 L 563.891 210.297 L 572.68 210.297 L 575.984 189.133 L 602.211 189.133 L 598.906 210.297 L 608.258 210.297 L 604.672 233.078 L 595.32 233.078 L 587.375 282.297 L 587.375 282.297 Z " fill="rgb(0,0,0)"/></svg>