<?xml version="1.0" encoding="UTF-8" standalone="no"?><!-- Generator: Gravit.io --><svg xmlns="http://www.w3.org/2000/svg" xmlns:xlink="http://www.w3.org/1999/xlink" style="isolation:isolate" viewBox="686.539 614.508 745.07 114.469" width="745.07pt" height="114.469pt"><g><path d=" M 715.086 726.797 L 686.539 726.797 L 702.852 624.141 L 753.688 624.141 L 749.75 649.031 L 727.461 649.031 L 725.141 663.867 L 744.406 663.867 L 740.68 688.055 L 721.273 688.055 L 715.086 726.797 L 715.086 726.797 Z  M 770.07 726.797 L 743.703 726.797 L 755.094 654.797 L 779.703 654.797 L 778.086 664.852 L 778.086 664.852 Q 782.445 659.297 787.789 656.309 L 787.789 656.309 L 787.789 656.309 Q 793.133 653.32 799.531 652.758 L 799.531 652.758 L 795.523 678.141 L 794.961 678.141 L 794.961 678.141 Q 785.398 678.141 780.969 681.727 L 780.969 681.727 L 780.969 681.727 Q 776.539 685.313 775.063 694.664 L 775.063 694.664 L 770.07 726.797 L 770.07 726.797 Z  M 823.648 699.305 L 823.648 699.305 L 823.648 699.305 Q 823.648 703.242 824.773 705.211 L 824.773 705.211 L 824.773 705.211 Q 825.898 707.18 828.078 707.18 L 828.078 707.18 L 828.078 707.18 Q 831.805 707.18 834.617 699.832 L 834.617 699.832 L 834.617 699.832 Q 837.43 692.484 837.43 682.43 L 837.43 682.43 L 837.43 682.43 Q 837.43 678.422 836.305 676.488 L 836.305 676.488 L 836.305 676.488 Q 835.18 674.555 832.859 674.555 L 832.859 674.555 L 832.859 674.555 Q 829.203 674.555 826.426 681.973 L 826.426 681.973 L 826.426 681.973 Q 823.648 689.391 823.648 699.305 Z  M 828.641 728.977 L 828.641 728.977 L 828.641 728.977 Q 813.523 728.977 805.613 720.961 L 805.613 720.961 L 805.613 720.961 Q 797.703 712.945 797.703 697.547 L 797.703 697.547 L 797.703 697.547 Q 797.703 677.156 807.16 664.957 L 807.16 664.957 L 807.16 664.957 Q 816.617 652.758 832.578 652.758 L 832.578 652.758 L 832.578 652.758 Q 847.695 652.758 855.535 660.738 L 855.535 660.738 L 855.535 660.738 Q 863.375 668.719 863.375 684.188 L 863.375 684.188 L 863.375 684.188 Q 863.375 704.648 853.988 716.813 L 853.988 716.813 L 853.988 716.813 Q 844.602 728.977 828.641 728.977 Z  M 890.445 726.797 L 864.5 726.797 L 875.891 654.797 L 899.375 654.797 L 898.18 662.25 L 898.18 662.25 Q 901.977 657.961 906.652 655.746 L 906.652 655.746 L 906.652 655.746 Q 911.328 653.531 916.602 653.531 L 916.602 653.531 L 916.602 653.531 Q 923.844 653.531 928.098 656.695 L 928.098 656.695 L 928.098 656.695 Q 932.352 659.859 933.055 665.695 L 933.055 665.695 L 933.055 665.695 Q 936.078 659.789 940.93 656.66 L 940.93 656.66 L 940.93 656.66 Q 945.781 653.531 951.898 653.531 L 951.898 653.531 L 951.898 653.531 Q 960.266 653.531 964.871 657.785 L 964.871 657.785 L 964.871 657.785 Q 969.477 662.039 969.477 669.773 L 969.477 669.773 L 969.477 669.773 Q 969.477 672.023 969.266 674.52 L 969.266 674.52 L 969.266 674.52 Q 969.055 677.016 968.633 679.828 L 968.633 679.828 L 961.109 726.797 L 935.023 726.797 L 941.844 684.328 L 941.844 684.328 Q 941.844 684.047 941.914 683.484 L 941.914 683.484 L 941.914 683.484 Q 942.125 682.078 942.125 681.867 L 942.125 681.867 L 942.125 681.867 Q 942.125 679.828 941 678.703 L 941 678.703 L 941 678.703 Q 939.875 677.578 937.906 677.578 L 937.906 677.578 L 937.906 677.578 Q 935.797 677.578 934.391 679.371 L 934.391 679.371 L 934.391 679.371 Q 932.984 681.164 932.492 684.609 L 932.492 684.609 L 925.813 726.797 L 899.797 726.797 L 906.547 684.328 L 906.547 684.328 Q 906.547 684.047 906.617 683.484 L 906.617 683.484 L 906.617 683.484 Q 906.828 682.078 906.828 681.867 L 906.828 681.867 L 906.828 681.867 Q 906.828 679.898 905.773 678.738 L 905.773 678.738 L 905.773 678.738 Q 904.719 677.578 902.961 677.578 L 902.961 677.578 L 902.961 677.578 Q 900.5 677.578 899.129 679.266 L 899.129 679.266 L 899.129 679.266 Q 897.758 680.953 897.195 684.539 L 897.195 684.539 L 890.445 726.797 L 890.445 726.797 Z  M 999.852 726.797 L 971.305 726.797 L 987.617 624.141 L 1038.453 624.141 L 1034.516 649.031 L 1012.227 649.031 L 1009.906 663.867 L 1029.172 663.867 L 1025.445 688.055 L 1006.039 688.055 L 999.852 726.797 L 999.852 726.797 Z  M 1054.836 726.797 L 1028.469 726.797 L 1039.859 654.797 L 1064.469 654.797 L 1062.852 664.852 L 1062.852 664.852 Q 1067.211 659.297 1072.555 656.309 L 1072.555 656.309 L 1072.555 656.309 Q 1077.898 653.32 1084.297 652.758 L 1084.297 652.758 L 1080.289 678.141 L 1079.727 678.141 L 1079.727 678.141 Q 1070.164 678.141 1065.734 681.727 L 1065.734 681.727 L 1065.734 681.727 Q 1061.305 685.313 1059.828 694.664 L 1059.828 694.664 L 1054.836 726.797 L 1054.836 726.797 Z  M 1106.094 726.797 L 1080.008 726.797 L 1091.398 654.797 L 1117.484 654.797 L 1106.094 726.797 L 1106.094 726.797 Z  M 1122.617 627.445 L 1122.617 627.445 L 1122.617 627.445 Q 1122.617 635.109 1118.012 640.207 L 1118.012 640.207 L 1118.012 640.207 Q 1113.406 645.305 1106.375 645.305 L 1106.375 645.305 L 1106.375 645.305 Q 1100.961 645.305 1097.691 641.789 L 1097.691 641.789 L 1097.691 641.789 Q 1094.422 638.273 1094.422 632.508 L 1094.422 632.508 L 1094.422 632.508 Q 1094.422 624.773 1099.063 619.641 L 1099.063 619.641 L 1099.063 619.641 Q 1103.703 614.508 1110.664 614.508 L 1110.664 614.508 L 1110.664 614.508 Q 1116.148 614.508 1119.383 618.023 L 1119.383 618.023 L 1119.383 618.023 Q 1122.617 621.539 1122.617 627.445 Z  M 1159.672 701.625 L 1181.539 701.625 L 1181.539 701.625 Q 1180.484 714.492 1172.258 721.734 L 1172.258 721.734 L 1172.258 721.734 Q 1164.031 728.977 1150.461 728.977 L 1150.461 728.977 L 1150.461 728.977 Q 1135.695 728.977 1127.961 720.891 L 1127.961 720.891 L 1127.961 720.891 Q 1120.227 712.805 1120.227 697.406 L 1120.227 697.406 L 1120.227 697.406 Q 1120.227 677.086 1130 664.922 L 1130 664.922 L 1130 664.922 Q 1139.773 652.758 1156.227 652.758 L 1156.227 652.758 L 1156.227 652.758 Q 1169.516 652.758 1177.285 659.824 L 1177.285 659.824 L 1177.285 659.824 Q 1185.055 666.891 1185.055 678.984 L 1185.055 678.984 L 1185.055 678.984 Q 1185.055 682.078 1184.773 685.699 L 1184.773 685.699 L 1184.773 685.699 Q 1184.492 689.32 1183.859 693.82 L 1183.859 693.82 L 1145.75 693.82 L 1145.75 693.82 Q 1145.328 697.195 1145.152 699.164 L 1145.152 699.164 L 1145.152 699.164 Q 1144.977 701.133 1144.977 702.328 L 1144.977 702.328 L 1144.977 702.328 Q 1144.977 706.055 1146.664 707.848 L 1146.664 707.848 L 1146.664 707.848 Q 1148.352 709.641 1151.797 709.641 L 1151.797 709.641 L 1151.797 709.641 Q 1155.453 709.641 1157.422 707.637 L 1157.422 707.637 L 1157.422 707.637 Q 1159.391 705.633 1159.672 701.625 L 1159.672 701.625 L 1159.672 701.625 Z  M 1147.578 681.727 L 1147.578 681.727 L 1162.977 681.727 L 1162.977 681.727 Q 1163.188 679.406 1163.223 678.387 L 1163.223 678.387 L 1163.223 678.387 Q 1163.258 677.367 1163.258 676.523 L 1163.258 676.523 L 1163.258 676.523 Q 1163.258 673.078 1161.746 671.285 L 1161.746 671.285 L 1161.746 671.285 Q 1160.234 669.492 1157.211 669.492 L 1157.211 669.492 L 1157.211 669.492 Q 1153.344 669.492 1151.094 672.375 L 1151.094 672.375 L 1151.094 672.375 Q 1148.844 675.258 1147.578 681.727 Z  M 1212.406 726.797 L 1186.461 726.797 L 1197.852 654.797 L 1221.336 654.797 L 1220.141 662.25 L 1220.141 662.25 Q 1223.938 657.961 1228.613 655.746 L 1228.613 655.746 L 1228.613 655.746 Q 1233.289 653.531 1238.563 653.531 L 1238.563 653.531 L 1238.563 653.531 Q 1246.93 653.531 1251.535 657.785 L 1251.535 657.785 L 1251.535 657.785 Q 1256.141 662.039 1256.141 669.773 L 1256.141 669.773 L 1256.141 669.773 Q 1256.141 671.602 1255.93 673.922 L 1255.93 673.922 L 1255.93 673.922 Q 1255.719 676.242 1255.156 679.828 L 1255.156 679.828 L 1247.773 726.797 L 1221.758 726.797 L 1228.508 684.328 L 1228.508 684.328 Q 1228.508 684.047 1228.578 683.484 L 1228.578 683.484 L 1228.578 683.484 Q 1228.789 682.078 1228.789 681.867 L 1228.789 681.867 L 1228.789 681.867 Q 1228.789 679.828 1227.664 678.703 L 1227.664 678.703 L 1227.664 678.703 Q 1226.539 677.578 1224.5 677.578 L 1224.5 677.578 L 1224.5 677.578 Q 1222.391 677.578 1221.02 679.371 L 1221.02 679.371 L 1221.02 679.371 Q 1219.648 681.164 1219.156 684.609 L 1219.156 684.609 L 1212.406 726.797 L 1212.406 726.797 Z  M 1302.125 683.344 L 1302.125 683.344 L 1302.125 683.344 Q 1302.125 679.055 1300.824 676.945 L 1300.824 676.945 L 1300.824 676.945 Q 1299.523 674.836 1296.922 674.836 L 1296.922 674.836 L 1296.922 674.836 Q 1293.055 674.836 1290.313 681.48 L 1290.313 681.48 L 1290.313 681.48 Q 1287.57 688.125 1287.57 697.969 L 1287.57 697.969 L 1287.57 697.969 Q 1287.57 702.328 1288.801 704.332 L 1288.801 704.332 L 1288.801 704.332 Q 1290.031 706.336 1292.633 706.336 L 1292.633 706.336 L 1292.633 706.336 Q 1296.57 706.336 1299.348 699.656 L 1299.348 699.656 L 1299.348 699.656 Q 1302.125 692.977 1302.125 683.344 Z  M 1321.813 726.797 L 1295.938 726.797 L 1297.063 718.852 L 1297.063 718.852 Q 1292.352 724.055 1287.992 726.375 L 1287.992 726.375 L 1287.992 726.375 Q 1283.633 728.695 1278.641 728.695 L 1278.641 728.695 L 1278.641 728.695 Q 1270.063 728.695 1265.281 722.156 L 1265.281 722.156 L 1265.281 722.156 Q 1260.5 715.617 1260.5 703.734 L 1260.5 703.734 L 1260.5 703.734 Q 1260.5 681.938 1269.148 667.418 L 1269.148 667.418 L 1269.148 667.418 Q 1277.797 652.898 1290.594 652.898 L 1290.594 652.898 L 1290.594 652.898 Q 1295.586 652.898 1299.277 655.254 L 1299.277 655.254 L 1299.277 655.254 Q 1302.969 657.609 1305.992 662.742 L 1305.992 662.742 L 1313.656 614.789 L 1339.531 614.789 L 1321.813 726.797 L 1321.813 726.797 Z  M 1330.25 721.031 L 1337.703 701.484 L 1337.703 701.484 Q 1341.852 705.281 1345.859 707.25 L 1345.859 707.25 L 1345.859 707.25 Q 1349.867 709.219 1353.383 709.219 L 1353.383 709.219 L 1353.383 709.219 Q 1355.984 709.219 1357.496 708.059 L 1357.496 708.059 L 1357.496 708.059 Q 1359.008 706.898 1359.008 704.93 L 1359.008 704.93 L 1359.008 704.93 Q 1359.008 701.695 1352.891 697.898 L 1352.891 697.898 L 1352.891 697.898 Q 1351.625 697.125 1350.992 696.703 L 1350.992 696.703 L 1350.992 696.703 Q 1343.75 691.992 1340.656 687.492 L 1340.656 687.492 L 1340.656 687.492 Q 1337.563 682.992 1337.563 677.086 L 1337.563 677.086 L 1337.563 677.086 Q 1337.563 666.328 1345.086 659.543 L 1345.086 659.543 L 1345.086 659.543 Q 1352.609 652.758 1364.773 652.758 L 1364.773 652.758 L 1364.773 652.758 Q 1370.117 652.758 1375.461 654.094 L 1375.461 654.094 L 1375.461 654.094 Q 1380.805 655.43 1385.375 657.961 L 1385.375 657.961 L 1380.945 677.086 L 1380.945 677.086 Q 1377.219 674.203 1374.02 672.797 L 1374.02 672.797 L 1374.02 672.797 Q 1370.82 671.391 1367.938 671.391 L 1367.938 671.391 L 1367.938 671.391 Q 1365.336 671.391 1363.754 672.586 L 1363.754 672.586 L 1363.754 672.586 Q 1362.172 673.781 1362.172 675.68 L 1362.172 675.68 L 1362.172 675.68 Q 1362.172 678 1366.461 680.953 L 1366.461 680.953 L 1366.461 680.953 Q 1368.078 682.078 1368.922 682.711 L 1368.922 682.711 L 1368.922 682.711 Q 1378.063 689.461 1380.629 693.82 L 1380.629 693.82 L 1380.629 693.82 Q 1383.195 698.18 1383.195 704.016 L 1383.195 704.016 L 1383.195 704.016 Q 1383.195 715.125 1375.496 721.91 L 1375.496 721.91 L 1375.496 721.91 Q 1367.797 728.695 1355 728.695 L 1355 728.695 L 1355 728.695 Q 1348.672 728.695 1342.238 726.691 L 1342.238 726.691 L 1342.238 726.691 Q 1335.805 724.688 1330.25 721.031 L 1330.25 721.031 L 1330.25 721.031 Z " fill="rgb(0,0,0)"/><path d=" M 1408.02 634.301 L 1408.02 614.93 L 1415.859 614.93 L 1419.832 625.582 L 1423.84 614.93 L 1431.609 614.93 L 1431.609 634.301 L 1426.16 634.301 L 1426.16 620.59 L 1421.027 634.301 L 1418.742 634.301 L 1413.469 620.59 L 1413.469 634.301 L 1408.02 634.301 L 1408.02 634.301 Z  M 1386.609 619.395 L 1386.609 614.93 L 1404.258 614.93 L 1404.258 619.395 L 1398.492 619.395 L 1398.492 634.301 L 1392.375 634.301 L 1392.375 619.395 L 1386.609 619.395 L 1386.609 619.395 Z " fill="rgb(f,f,f)"/></g></svg>
