<?xml version="1.0" encoding="UTF-8" standalone="no"?><!-- Generator: Gravit.io --><svg xmlns="http://www.w3.org/2000/svg" xmlns:xlink="http://www.w3.org/1999/xlink" style="isolation:isolate" viewBox="-0.844 36.141 300.445 104.836" width="300.445pt" height="104.836pt"><path d=" M 23.625 138.797 L -0.844 138.797 L 15.539 36.141 L 42.047 36.141 L 51.258 91.266 L 60.891 36.141 L 84.938 36.141 L 68.836 138.797 L 42.469 138.797 L 32.695 85.641 L 23.625 138.797 L 23.625 138.797 Z  M 124.102 113.625 L 145.969 113.625 L 145.969 113.625 Q 144.914 126.492 136.688 133.734 L 136.688 133.734 L 136.688 133.734 Q 128.461 140.977 114.891 140.977 L 114.891 140.977 L 114.891 140.977 Q 100.125 140.977 92.391 132.891 L 92.391 132.891 L 92.391 132.891 Q 84.656 124.805 84.656 109.406 L 84.656 109.406 L 84.656 109.406 Q 84.656 89.086 94.43 76.922 L 94.43 76.922 L 94.43 76.922 Q 104.203 64.758 120.656 64.758 L 120.656 64.758 L 120.656 64.758 Q 133.945 64.758 141.715 71.824 L 141.715 71.824 L 141.715 71.824 Q 149.484 78.891 149.484 90.984 L 149.484 90.984 L 149.484 90.984 Q 149.484 94.078 149.203 97.699 L 149.203 97.699 L 149.203 97.699 Q 148.922 101.32 148.289 105.82 L 148.289 105.82 L 110.18 105.82 L 110.18 105.82 Q 109.758 109.195 109.582 111.164 L 109.582 111.164 L 109.582 111.164 Q 109.406 113.133 109.406 114.328 L 109.406 114.328 L 109.406 114.328 Q 109.406 118.055 111.094 119.848 L 111.094 119.848 L 111.094 119.848 Q 112.781 121.641 116.227 121.641 L 116.227 121.641 L 116.227 121.641 Q 119.883 121.641 121.852 119.637 L 121.852 119.637 L 121.852 119.637 Q 123.82 117.633 124.102 113.625 L 124.102 113.625 L 124.102 113.625 Z  M 112.008 93.727 L 112.008 93.727 L 127.406 93.727 L 127.406 93.727 Q 127.617 91.406 127.652 90.387 L 127.652 90.387 L 127.652 90.387 Q 127.688 89.367 127.688 88.523 L 127.688 88.523 L 127.688 88.523 Q 127.688 85.078 126.176 83.285 L 126.176 83.285 L 126.176 83.285 Q 124.664 81.492 121.641 81.492 L 121.641 81.492 L 121.641 81.492 Q 117.773 81.492 115.523 84.375 L 115.523 84.375 L 115.523 84.375 Q 113.273 87.258 112.008 93.727 Z  M 162.844 138.797 L 156.516 66.797 L 180.563 66.797 L 180.563 111.305 L 193.922 66.797 L 215.227 66.797 L 214.523 111.305 L 228.656 66.797 L 252.703 66.797 L 223.453 138.797 L 200.25 138.797 L 199.828 96.609 L 186.047 138.797 L 162.844 138.797 L 162.844 138.797 Z  M 244.477 133.031 L 251.93 113.484 L 251.93 113.484 Q 256.078 117.281 260.086 119.25 L 260.086 119.25 L 260.086 119.25 Q 264.094 121.219 267.609 121.219 L 267.609 121.219 L 267.609 121.219 Q 270.211 121.219 271.723 120.059 L 271.723 120.059 L 271.723 120.059 Q 273.234 118.898 273.234 116.93 L 273.234 116.93 L 273.234 116.93 Q 273.234 113.695 267.117 109.898 L 267.117 109.898 L 267.117 109.898 Q 265.852 109.125 265.219 108.703 L 265.219 108.703 L 265.219 108.703 Q 257.977 103.992 254.883 99.492 L 254.883 99.492 L 254.883 99.492 Q 251.789 94.992 251.789 89.086 L 251.789 89.086 L 251.789 89.086 Q 251.789 78.328 259.313 71.543 L 259.313 71.543 L 259.313 71.543 Q 266.836 64.758 279 64.758 L 279 64.758 L 279 64.758 Q 284.344 64.758 289.688 66.094 L 289.688 66.094 L 289.688 66.094 Q 295.031 67.43 299.602 69.961 L 299.602 69.961 L 295.172 89.086 L 295.172 89.086 Q 291.445 86.203 288.246 84.797 L 288.246 84.797 L 288.246 84.797 Q 285.047 83.391 282.164 83.391 L 282.164 83.391 L 282.164 83.391 Q 279.563 83.391 277.98 84.586 L 277.98 84.586 L 277.98 84.586 Q 276.398 85.781 276.398 87.68 L 276.398 87.68 L 276.398 87.68 Q 276.398 90 280.688 92.953 L 280.688 92.953 L 280.688 92.953 Q 282.305 94.078 283.148 94.711 L 283.148 94.711 L 283.148 94.711 Q 292.289 101.461 294.855 105.82 L 294.855 105.82 L 294.855 105.82 Q 297.422 110.18 297.422 116.016 L 297.422 116.016 L 297.422 116.016 Q 297.422 127.125 289.723 133.91 L 289.723 133.91 L 289.723 133.91 Q 282.023 140.695 269.227 140.695 L 269.227 140.695 L 269.227 140.695 Q 262.898 140.695 256.465 138.691 L 256.465 138.691 L 256.465 138.691 Q 250.031 136.688 244.477 133.031 L 244.477 133.031 L 244.477 133.031 Z " fill="rgb(0,0,0)"/></svg>