<?xml version="1.0" encoding="UTF-8" standalone="no"?><!-- Generator: Gravit.io --><svg xmlns="http://www.w3.org/2000/svg" xmlns:xlink="http://www.w3.org/1999/xlink" style="isolation:isolate" viewBox="226.344 734.531 281.953 114.188" width="281.953pt" height="114.188pt"><path d=" M 272.258 769.898 L 260.164 846.539 L 231.336 846.539 L 243.43 769.898 L 226.344 769.898 L 230.492 743.883 L 293.422 743.883 L 289.273 769.898 L 272.258 769.898 L 272.258 769.898 Z  M 305.023 819.047 L 305.023 819.047 L 305.023 819.047 Q 305.023 822.984 306.148 824.953 L 306.148 824.953 L 306.148 824.953 Q 307.273 826.922 309.453 826.922 L 309.453 826.922 L 309.453 826.922 Q 313.18 826.922 315.992 819.574 L 315.992 819.574 L 315.992 819.574 Q 318.805 812.227 318.805 802.172 L 318.805 802.172 L 318.805 802.172 Q 318.805 798.164 317.68 796.23 L 317.68 796.23 L 317.68 796.23 Q 316.555 794.297 314.234 794.297 L 314.234 794.297 L 314.234 794.297 Q 310.578 794.297 307.801 801.715 L 307.801 801.715 L 307.801 801.715 Q 305.023 809.133 305.023 819.047 Z  M 310.016 848.719 L 310.016 848.719 L 310.016 848.719 Q 294.898 848.719 286.988 840.703 L 286.988 840.703 L 286.988 840.703 Q 279.078 832.688 279.078 817.289 L 279.078 817.289 L 279.078 817.289 Q 279.078 796.898 288.535 784.699 L 288.535 784.699 L 288.535 784.699 Q 297.992 772.5 313.953 772.5 L 313.953 772.5 L 313.953 772.5 Q 329.07 772.5 336.91 780.48 L 336.91 780.48 L 336.91 780.48 Q 344.75 788.461 344.75 803.93 L 344.75 803.93 L 344.75 803.93 Q 344.75 824.391 335.363 836.555 L 335.363 836.555 L 335.363 836.555 Q 325.977 848.719 310.016 848.719 Z  M 375.266 819.047 L 375.266 819.047 L 375.266 819.047 Q 375.266 822.984 376.391 824.953 L 376.391 824.953 L 376.391 824.953 Q 377.516 826.922 379.695 826.922 L 379.695 826.922 L 379.695 826.922 Q 383.422 826.922 386.234 819.574 L 386.234 819.574 L 386.234 819.574 Q 389.047 812.227 389.047 802.172 L 389.047 802.172 L 389.047 802.172 Q 389.047 798.164 387.922 796.23 L 387.922 796.23 L 387.922 796.23 Q 386.797 794.297 384.477 794.297 L 384.477 794.297 L 384.477 794.297 Q 380.82 794.297 378.043 801.715 L 378.043 801.715 L 378.043 801.715 Q 375.266 809.133 375.266 819.047 Z  M 380.258 848.719 L 380.258 848.719 L 380.258 848.719 Q 365.141 848.719 357.23 840.703 L 357.23 840.703 L 357.23 840.703 Q 349.32 832.688 349.32 817.289 L 349.32 817.289 L 349.32 817.289 Q 349.32 796.898 358.777 784.699 L 358.777 784.699 L 358.777 784.699 Q 368.234 772.5 384.195 772.5 L 384.195 772.5 L 384.195 772.5 Q 399.313 772.5 407.152 780.48 L 407.152 780.48 L 407.152 780.48 Q 414.992 788.461 414.992 803.93 L 414.992 803.93 L 414.992 803.93 Q 414.992 824.391 405.605 836.555 L 405.605 836.555 L 405.605 836.555 Q 396.219 848.719 380.258 848.719 Z  M 443.188 846.539 L 417.102 846.539 L 434.82 734.531 L 460.906 734.531 L 443.188 846.539 L 443.188 846.539 Z  M 453.172 840.773 L 460.625 821.227 L 460.625 821.227 Q 464.773 825.023 468.781 826.992 L 468.781 826.992 L 468.781 826.992 Q 472.789 828.961 476.305 828.961 L 476.305 828.961 L 476.305 828.961 Q 478.906 828.961 480.418 827.801 L 480.418 827.801 L 480.418 827.801 Q 481.93 826.641 481.93 824.672 L 481.93 824.672 L 481.93 824.672 Q 481.93 821.438 475.813 817.641 L 475.813 817.641 L 475.813 817.641 Q 474.547 816.867 473.914 816.445 L 473.914 816.445 L 473.914 816.445 Q 466.672 811.734 463.578 807.234 L 463.578 807.234 L 463.578 807.234 Q 460.484 802.734 460.484 796.828 L 460.484 796.828 L 460.484 796.828 Q 460.484 786.07 468.008 779.285 L 468.008 779.285 L 468.008 779.285 Q 475.531 772.5 487.695 772.5 L 487.695 772.5 L 487.695 772.5 Q 493.039 772.5 498.383 773.836 L 498.383 773.836 L 498.383 773.836 Q 503.727 775.172 508.297 777.703 L 508.297 777.703 L 503.867 796.828 L 503.867 796.828 Q 500.141 793.945 496.941 792.539 L 496.941 792.539 L 496.941 792.539 Q 493.742 791.133 490.859 791.133 L 490.859 791.133 L 490.859 791.133 Q 488.258 791.133 486.676 792.328 L 486.676 792.328 L 486.676 792.328 Q 485.094 793.523 485.094 795.422 L 485.094 795.422 L 485.094 795.422 Q 485.094 797.742 489.383 800.695 L 489.383 800.695 L 489.383 800.695 Q 491 801.82 491.844 802.453 L 491.844 802.453 L 491.844 802.453 Q 500.984 809.203 503.551 813.563 L 503.551 813.563 L 503.551 813.563 Q 506.117 817.922 506.117 823.758 L 506.117 823.758 L 506.117 823.758 Q 506.117 834.867 498.418 841.652 L 498.418 841.652 L 498.418 841.652 Q 490.719 848.438 477.922 848.438 L 477.922 848.438 L 477.922 848.438 Q 471.594 848.438 465.16 846.434 L 465.16 846.434 L 465.16 846.434 Q 458.727 844.43 453.172 840.773 L 453.172 840.773 L 453.172 840.773 Z " fill="rgb(0,0,0)"/></svg>