<?xml version="1.0" encoding="UTF-8" standalone="no"?><!-- Generator: Gravit.io --><svg xmlns="http://www.w3.org/2000/svg" xmlns:xlink="http://www.w3.org/1999/xlink" style="isolation:isolate" viewBox="0 0 1080 271" width="1080pt" height="271pt"><defs><clipPath id="_clipPath_dBFNLaNDwTC0tT81sM5fFDTRTlbZh4RW"><rect width="1080" height="271"/></clipPath></defs><g clip-path="url(#_clipPath_dBFNLaNDwTC0tT81sM5fFDTRTlbZh4RW)"><g><path d=" M 83 0 L 0 137.8 L 83 100.1 L 83 0 Z " fill="rgb(136,145,177)"/><path d=" M 83 100.1 L 0 137.8 L 83 186.9 L 83 100.1 Z " fill="rgb(99,104,142)"/><path d=" M 166.1 137.8 L 83 0 L 83 100.1 L 166.1 137.8 Z " fill="rgb(99,104,142)"/><path d=" M 83 186.9 L 166.1 137.8 L 83 100.1 L 83 186.9 Z " fill="rgb(70,74,117)"/><path d=" M 0 153.6 L 83 270.6 L 83 202.6 L 0 153.6 Z " fill="rgb(136,145,177)"/><path d=" M 83 202.6 L 83 270.6 L 166.1 153.6 L 83 202.6 Z " fill="rgb(99,104,142)"/><g><path d=" M 304.9 156.4 C 304.9 158.3 303.2 160 301.3 160 L 234.9 160 C 236.6 175.8 248.9 191.2 266.3 191.2 C 278.2 191.2 287 186.6 293.7 177 C 294.4 176 295.4 175.3 296.6 175.3 C 298.5 175.3 299.9 176.7 299.9 178.6 C 299.9 179.3 299.7 179.8 299.4 180.3 C 292.7 192 279.4 197.7 266.3 197.7 C 243.9 197.7 228 177.7 228 156.3 C 228 134.9 243.9 115 266.3 115 C 288.7 115 304.9 135 304.9 156.4 L 304.9 156.4 Z  M 297.7 153.2 C 296.3 136.3 283.7 121.8 266.3 121.8 C 248.9 121.8 236.5 136.3 234.9 153.2 L 297.7 153.2 Z " fill="rgb(136,145,177)"/><path d=" M 385.6 116.1 C 387.5 116.1 388.9 117.8 388.9 119.5 C 388.9 121.4 387.5 122.9 385.6 122.9 L 367.8 122.9 L 367.8 193.1 C 367.8 194.8 366.3 196.4 364.4 196.4 C 362.5 196.4 361 194.7 361 193.1 L 361 122.9 L 343.9 122.9 C 342 122.9 340.6 121.4 340.6 119.5 C 340.6 117.8 342 116.1 343.9 116.1 L 361 116.1 L 361 90.7 C 361 88.8 362.5 87.4 364.4 87.4 C 366.3 87.4 367.8 88.8 367.8 90.7 L 367.8 116.1 L 385.6 116.1 Z " fill="rgb(136,145,177)"/><path d=" M 493.8 150.2 L 493.8 192.6 C 493.8 194.5 492.7 195.9 491 195.9 C 489.1 195.9 488.2 194.5 488.2 192.6 L 488.2 150.2 C 488.2 135.9 479.9 121.6 463.9 121.6 C 443.4 121.6 434.3 139.5 435.4 157.8 C 435.4 158.3 435.3 160.4 435.3 160.7 L 435.3 192.6 C 435.3 194.5 434.4 195.9 432.5 195.9 C 430.6 195.9 429.7 194.5 429.7 192.6 L 429.7 53.3 C 429.7 51.6 430.6 50 432.5 50 C 434.4 50 435.3 51.7 435.3 53.3 L 435.3 132.1 C 442.1 121.9 451.2 115 463.1 115 C 482.6 115 493.8 132.1 493.8 150.2 L 493.8 150.2 Z " fill="rgb(136,145,177)"/><path d=" M 613.6 156.4 C 613.6 158.3 611.9 160 610 160 L 543.6 160 C 545.3 175.8 557.6 191.2 575 191.2 C 586.9 191.2 595.7 186.6 602.4 177 C 603.1 176 604.1 175.3 605.3 175.3 C 607.2 175.3 608.6 176.7 608.6 178.6 C 608.6 179.3 608.4 179.8 608.1 180.3 C 601.4 192 588.1 197.7 575 197.7 C 552.6 197.7 536.7 177.7 536.7 156.3 C 536.7 134.9 552.6 115 575 115 C 597.4 115 613.6 135 613.6 156.4 Z  M 606.5 153.2 C 605.1 136.3 592.5 121.8 575.1 121.8 C 557.7 121.8 545.3 136.3 543.7 153.2 L 606.5 153.2 Z " fill="rgb(136,145,177)"/><path d=" M 695.3 119.5 C 695.3 121.6 694.1 122.8 692.1 123.1 C 672.6 126 663.7 141.9 663.7 160.5 L 663.7 192.3 C 663.7 194.2 662.2 195.6 660.3 195.6 C 658.4 195.6 656.9 194.2 656.9 192.3 L 656.9 119.7 C 656.9 117.8 658.4 116.4 660.3 116.4 C 662.2 116.4 663.7 117.8 663.7 119.7 L 663.7 134.5 C 669.3 125.2 680.2 116.4 691.6 116.4 C 693.3 116.4 695.3 117.6 695.3 119.5 L 695.3 119.5 Z " fill="rgb(136,145,177)"/><path d=" M 804.5 156.4 C 804.5 158.3 802.8 160 800.9 160 L 734.5 160 C 736.2 175.8 748.5 191.2 765.9 191.2 C 777.8 191.2 786.6 186.6 793.3 177 C 794 176 795 175.3 796.2 175.3 C 798.1 175.3 799.5 176.7 799.5 178.6 C 799.5 179.3 799.3 179.8 799 180.3 C 792.3 192 779 197.7 765.9 197.7 C 743.5 197.7 727.6 177.7 727.6 156.3 C 727.6 134.9 743.5 115 765.9 115 C 788.3 114.9 804.5 135 804.5 156.4 L 804.5 156.4 Z  M 797.4 153.2 C 796 136.3 783.4 121.8 766 121.8 C 748.6 121.8 736.2 136.3 734.6 153.2 L 797.4 153.2 Z " fill="rgb(136,145,177)"/><path d=" M 912.4 120.2 L 912.4 143.3 L 912.4 193 C 912.4 194.9 910.7 196.3 909 196.3 C 907.1 196.3 905.6 194.9 905.6 193 L 905.6 179.3 C 900 190.2 890.3 198.1 877.9 198.1 C 858.1 198.1 847.1 181 847.1 162.9 L 847.1 120.3 C 847.1 118.6 848.6 117 850.5 117 C 852.4 117 853.9 118.7 853.9 120.3 L 853.9 162.9 C 853.9 177.2 862 191.5 878 191.5 C 900.4 191.5 905.7 170.6 905.7 147.5 L 905.7 120.4 C 905.7 118.7 907.2 117.1 909.1 117.1 C 910.7 116.9 912.4 118.6 912.4 120.2 Z " fill="rgb(136,145,177)"/><path d=" M 1080 150 L 1080 192.6 C 1080 194.5 1078.3 195.9 1076.6 195.9 C 1074.7 195.9 1073.2 194.5 1073.2 192.6 L 1073.2 150 C 1073.2 135.7 1065.1 121.7 1049.1 121.7 C 1029.1 121.7 1021.4 143.1 1021.4 159.8 L 1021.4 192.6 C 1021.4 194.5 1019.7 195.9 1018 195.9 C 1016.1 195.9 1014.6 194.5 1014.6 192.6 L 1014.6 150 C 1014.6 135.7 1006.7 121.7 990.8 121.7 C 970.6 121.7 962.2 137.6 962.9 158.8 L 962.9 160.5 L 962.9 192.6 C 962.9 194.5 961.4 195.9 959.5 195.9 C 957.6 195.9 956.1 194.5 956.1 192.6 L 956.1 119.8 C 956.1 117.9 957.6 116.5 959.5 116.5 C 961.4 116.5 962.9 117.9 962.9 119.8 L 962.9 131.9 C 968.5 121.7 979 115 990.9 115 C 1004.5 115 1015 123.6 1019.3 136.2 C 1024.8 123.8 1035.5 115 1049.3 115 C 1068.9 115 1080 131.9 1080 150 L 1080 150 Z " fill="rgb(136,145,177)"/></g></g></g></svg>